<svg width="64" height="64" viewBox="0 0 64 64" fill="none" xmlns="http://www.w3.org/2000/svg">
<path d="M21.0196 12.6358L62.2611 31.2274C62.4103 31.2941 62.5371 31.4025 62.626 31.5396C62.7149 31.6767 62.7622 31.8366 62.7622 32.0001C62.7621 32.1635 62.7148 32.3234 62.6259 32.4605C62.5369 32.5977 62.4102 32.7061 62.261 32.7728L21.0158 51.3726C20.8571 51.4412 20.6812 51.4596 20.5118 51.4253C20.3424 51.3909 20.1876 51.3056 20.0682 51.1806C19.9488 51.0557 19.8705 50.8971 19.8439 50.7264C19.8173 50.5556 19.8436 50.3807 19.9193 50.2253L27.3029 32.7598C27.4203 32.5249 27.4813 32.266 27.4814 32.0036C27.4814 31.7411 27.4204 31.4822 27.3031 31.2474L19.9184 13.7878C19.8404 13.6318 19.8124 13.4555 19.8383 13.283C19.8643 13.1105 19.9429 12.9503 20.0635 12.8241C20.184 12.698 20.3406 12.6123 20.5117 12.5785C20.6829 12.5448 20.8603 12.5648 21.0196 12.6358ZM62.5176 32.0001L27.6613 32.0035L62.5176 32.0001Z" fill="white"/>
<path d="M62.5176 32.0001L27.6613 32.0035M21.0196 12.6358L62.2611 31.2274C62.4103 31.2941 62.5371 31.4025 62.626 31.5396C62.7149 31.6767 62.7622 31.8366 62.7622 32.0001C62.7621 32.1635 62.7148 32.3234 62.6259 32.4605C62.5369 32.5977 62.4102 32.7061 62.261 32.7728L21.0157 51.3726C20.8571 51.4412 20.6812 51.4596 20.5118 51.4253C20.3424 51.3909 20.1876 51.3056 20.0682 51.1806C19.9488 51.0557 19.8705 50.8971 19.8439 50.7264C19.8173 50.5556 19.8436 50.3807 19.9193 50.2253L27.3029 32.7598C27.4203 32.5249 27.4813 32.266 27.4814 32.0036C27.4814 31.7411 27.4204 31.4822 27.3031 31.2474L19.9184 13.7878C19.8404 13.6318 19.8124 13.4555 19.8383 13.283C19.8643 13.1105 19.9429 12.9503 20.0635 12.8241C20.184 12.698 20.3406 12.6123 20.5117 12.5785C20.6829 12.5448 20.8603 12.5648 21.0196 12.6358V12.6358Z" stroke="#FF5A7B" stroke-width="2" stroke-linecap="round" stroke-linejoin="round"/>
</svg>
