<?xml version="1.0" standalone="no"?>
<!DOCTYPE svg PUBLIC "-//W3C//DTD SVG 20010904//EN"
 "http://www.w3.org/TR/2001/REC-SVG-20010904/DTD/svg10.dtd">
<svg version="1.0" xmlns="http://www.w3.org/2000/svg"
 width="858.000000pt" height="310.000000pt" viewBox="0 0 858.000000 310.000000"
 preserveAspectRatio="xMidYMid meet">

<g transform="translate(0.000000,310.000000) scale(0.100000,-0.100000)"
fill="#000000" stroke="none">
<path d="M2584 2976 c-51 -23 -102 -74 -130 -134 -36 -76 -31 -172 12 -252 37
-69 147 -186 244 -260 84 -64 228 -160 239 -160 13 0 218 143 287 200 141 117
227 252 228 359 0 107 -81 225 -173 251 -117 33 -277 -23 -326 -114 l-19 -35
-23 38 c-25 42 -83 85 -145 107 -51 18 -153 18 -194 0z" fill="#FF5A7B"/>
<path d="M2656 2154 c-4 -15 -35 -55 -69 -88 -53 -53 -87 -74 -231 -145 -275
-136 -382 -222 -445 -354 -51 -108 -66 -200 -66 -397 1 -157 3 -182 24 -240
48 -135 150 -260 262 -319 219 -118 538 -88 710 67 112 100 162 218 162 382 0
161 -38 256 -144 356 -108 101 -208 139 -348 132 -96 -5 -184 -33 -238 -74
l-35 -26 15 28 c19 35 80 94 127 121 19 12 87 42 150 68 155 63 242 110 299
161 49 44 111 146 111 182 0 15 -32 38 -133 96 -73 42 -135 76 -139 76 -3 0
-9 -12 -12 -26z m-107 -893 c140 -72 162 -260 42 -363 -95 -81 -245 -74 -335
15 -123 124 -70 311 104 368 40 13 145 2 189 -20z" />
<path d="M750 2159 c-297 -52 -538 -262 -637 -554 -25 -74 -27 -92 -27 -250
-1 -167 0 -172 32 -264 56 -160 146 -286 274 -384 142 -108 273 -155 453 -164
258 -13 449 59 626 236 136 136 204 274 230 466 54 407 -191 784 -583 895 -85
25 -281 35 -368 19z m258 -354 c86 -20 136 -48 203 -112 118 -112 165 -287
124 -462 -21 -88 -58 -151 -125 -215 -100 -96 -203 -132 -349 -123 -143 8
-251 64 -333 172 -60 79 -81 143 -86 267 -3 89 -1 119 17 176 69 227 305 354
549 297z" />
<path d="M5373 1705 c-89 -25 -155 -65 -229 -139 -120 -120 -174 -254 -174
-436 0 -182 54 -316 175 -437 116 -116 232 -160 395 -150 103 6 181 33 250 88
l50 39 0 -50 0 -50 165 0 165 0 0 560 0 560 -165 0 -165 0 0 -50 0 -50 -50 39
c-75 59 -147 83 -265 87 -68 3 -117 -1 -152 -11z m323 -328 c90 -47 137 -132
137 -247 0 -89 -22 -147 -72 -198 -49 -48 -88 -65 -166 -70 -85 -5 -137 8
-192 48 -96 70 -128 234 -70 353 29 58 76 102 136 124 48 18 186 12 227 -10z" />
<path d="M7653 1705 c-89 -25 -155 -65 -229 -139 -120 -120 -174 -254 -174
-436 0 -182 54 -316 175 -437 116 -116 232 -160 395 -150 103 6 181 33 250 88
l50 39 0 -50 0 -50 165 0 165 0 0 560 0 560 -165 0 -165 0 0 -50 0 -50 -50 39
c-75 59 -147 83 -265 87 -68 3 -117 -1 -152 -11z m323 -328 c90 -47 137 -132
137 -247 0 -89 -22 -147 -72 -198 -49 -48 -88 -65 -166 -70 -85 -5 -137 8
-192 48 -96 70 -128 234 -70 353 29 58 76 102 136 124 48 18 186 12 227 -10z" />
<path d="M3160 1130 l0 -560 705 0 705 0 0 -150 0 -150 165 0 165 0 0 305 0
304 -72 3 -73 3 -3 403 -2 402 -165 0 -165 0 -2 -402 -3 -403 -142 -3 -143 -3
0 406 0 405 -170 0 -170 0 0 -405 0 -405 -145 0 -145 0 0 405 0 405 -170 0
-170 0 0 -560z" />
<path d="M6420 1130 l0 -560 170 0 170 0 0 400 0 400 225 0 225 0 0 160 0 160
-395 0 -395 0 0 -560z" />
</g>
</svg>
